<svg width="512" height="512" viewBox="0 0 512 512" xmlns="http://www.w3.org/2000/svg">
  <defs>
    <linearGradient id="bg" x1="0%" y1="0%" x2="100%" y2="100%">
      <stop offset="0%" style="stop-color:#f43f5e"/>
      <stop offset="50%" style="stop-color:#ec4899"/>
      <stop offset="100%" style="stop-color:#db2777"/>
    </linearGradient>
    <linearGradient id="bookGrad" x1="0%" y1="0%" x2="100%" y2="100%">
      <stop offset="0%" style="stop-color:#ffffff"/>
      <stop offset="100%" style="stop-color:#fdf2f8"/>
    </linearGradient>
    <filter id="shadow" x="-20%" y="-20%" width="140%" height="140%">
      <feDropShadow dx="0" dy="8" stdDeviation="12" flood-color="#000" flood-opacity="0.2"/>
    </filter>
  </defs>
  
  <circle cx="256" cy="256" r="256" fill="url(#bg)"/>
  
  <g transform="translate(256, 240)" filter="url(#shadow)">
    <rect x="-90" y="-70" width="180" height="140" rx="18" fill="url(#bookGrad)"/>
    <line x1="0" y1="-70" x2="0" y2="70" stroke="#fecdd3" stroke-width="3"/>
    <line x1="-70" y1="-40" x2="-20" y2="-40" stroke="#fda4af" stroke-width="6" stroke-linecap="round"/>
    <line x1="-70" y1="-15" x2="-25" y2="-15" stroke="#fda4af" stroke-width="6" stroke-linecap="round"/>
    <line x1="-70" y1="10" x2="-35" y2="10" stroke="#fda4af" stroke-width="6" stroke-linecap="round"/>
    <line x1="20" y1="-40" x2="70" y2="-40" stroke="#fda4af" stroke-width="6" stroke-linecap="round"/>
    <line x1="20" y1="-15" x2="65" y2="-15" stroke="#fda4af" stroke-width="6" stroke-linecap="round"/>
    <line x1="20" y1="10" x2="55" y2="10" stroke="#fda4af" stroke-width="6" stroke-linecap="round"/>
  </g>
  
  <circle cx="360" cy="360" r="58" fill="white" filter="url(#shadow)"/>
  <path d="M335 360 L355 380 L390 340" stroke="#10b981" stroke-width="12" stroke-linecap="round" stroke-linejoin="round" fill="none"/>
  
  <circle cx="120" cy="130" r="25" fill="rgba(255,255,255,0.2)"/>
  <circle cx="400" cy="100" r="18" fill="rgba(255,255,255,0.15)"/>
  <circle cx="90" cy="380" r="15" fill="rgba(255,255,255,0.15)"/>
</svg>
